<svg width="50" height="30" fill="none" xmlns="http://www.w3.org/2000/svg"><path d="M8 0l10 15L8 29.5h42V0H8z" fill="#fff"/><path d="M4 0l10 15L4 29.5H0L10 15 0 0h4z" fill="#fff"/><path d="M24.629 12.82l3.2-5.883h4.042l-4.969 8.461L32 24h-4.09l-3.281-5.977L21.348 24h-4.09l5.098-8.602-4.97-8.46h4.044l3.199 5.882zm9.293 2.79l.984-8.672h9.563v2.824h-6.785l-.422 3.668a5.37 5.37 0 0 1 2.566-.645c1.625 0 2.899.504 3.82 1.512.922 1.008 1.383 2.418 1.383 4.23 0 1.102-.234 2.09-.703 2.965a4.93 4.93 0 0 1-1.992 2.027c-.867.477-1.89.715-3.07.715a6.677 6.677 0 0 1-2.871-.62c-.883-.423-1.583-1.012-2.098-1.77-.508-.758-.777-1.621-.809-2.59h3.352c.07.71.316 1.265.738 1.664.43.39.988.586 1.676.586.766 0 1.355-.274 1.77-.82.413-.555.62-1.336.62-2.344 0-.969-.238-1.711-.714-2.227-.477-.515-1.153-.773-2.028-.773-.804 0-1.457.21-1.957.633l-.328.304-2.695-.668z" fill="#FF5722"/></svg>